<svg id="Layer_2" data-name="Layer 2" xmlns="http://www.w3.org/2000/svg" viewBox="0 0 259.53 63.51"><defs><style>.cls-1{fill:#c10a0b;}.cls-2{fill:#c0090a;}.cls-3{fill:#c10c0d;}.cls-4{fill:#c20e0f;}.cls-5{fill:#c10b0c;}.cls-6{fill:#c21111;}</style></defs><path class="cls-1" d="M175.48,39.55c-4.2,11.59-12.37,17.44-24.11,18.18-5.46.34-11,.06-16.78.06V7.49c7.5,0,15.27-1.17,22.53.25,14.14,2.77,21.64,16.46,18.36,31.81m-9.91-7.09a16,16,0,0,0-5.19-12.2,15.64,15.64,0,0,0-15.59-2.75V47.13c.38.13,9.06,2.83,15.63-3A16.17,16.17,0,0,0,165.57,32.46Z" transform="translate(-134.59 -7.03)"/><path class="cls-2" d="M206.12,48.24l7.14,4.43a19.69,19.69,0,0,1-8.93,5,18.62,18.62,0,0,1-14.64-2.29c-6.32-4.2-7.49-11-7.79-12.75a19.27,19.27,0,0,1,.87-10.18c3.19-8.36,12.51-13.6,20.76-11.66,9.88,2.31,15.37,10.79,14.39,22.9-3.18,0-6.44,0-10.62,0-5.25,0-9.6,0-13.94,0a8.1,8.1,0,0,0,3.4,5.19A8.38,8.38,0,0,0,206.12,48.24Zm-12.65-11.5,14.29-.14c-.19-3.44-2.27-6.28-5.07-7.07a7.21,7.21,0,0,0-5.8,1.15A8.37,8.37,0,0,0,193.47,36.74Z" transform="translate(-134.59 -7.03)"/><path class="cls-3" d="M368.57,49.16c-1.92-4.43-6.37-14.56-12.41-28,.56,0,1.29-.08,2.17-.1.45,0,1.77,0,4.14.07,2.21.1,3.32.16,3.84.45a5.07,5.07,0,0,1,2.08,2.85c1.37,3.64,3.56,10.1,5.06,13.8.8,2,1.53,3.46,2.21,3.38.32,0,.61-.39,1.51-2.9.53-1.46.8-2.19,1.14-3.39.39-1.39.51-1.39,2.42-6,2.27-5.44,2.61-6.65,4-7.29a10.47,10.47,0,0,1,2.47-.61,20.19,20.19,0,0,1,3.36-.15c.89,0,2.09,0,3.51.1-.31.9-.8,2.53-1.59,4.5q-7.39,18.5-14.82,37c-3.27,8.15-3.27,8.15-13.32,7.37.52-1.33,1.52-3.91,2.8-7.23,2-5.23,2.72-7.16,2.47-9.8A12.69,12.69,0,0,0,368.57,49.16Z" transform="translate(-134.59 -7.03)"/><path class="cls-4" d="M228.42,24.76a6.71,6.71,0,0,1,2.94-3.12c.46-.23,2.92-1.41,4.56-.35,1,.65.7,1.5,1.65,1.93s1.46-.25,4-.62a15.9,15.9,0,0,1,2.29-.19c1.49,0,2.51.22,3.53.24,6.26.11,10.86,6.8,11.06,7.1a16.7,16.7,0,0,1,2.56,6.52,29.11,29.11,0,0,1,.21,4.48c0,5.61,0,11.22,0,17H251.4c0-6,0-11.74,0-17.5-.06-5.18-2.61-8.06-6.82-7.93-3.93.12-6.24,3-6.27,8,0,5.64,0,11.29,0,17.31h-9.86Z" transform="translate(-134.59 -7.03)"/><path class="cls-5" d="M282.5,44.22c-2.07-.59-7.6-2.5-9.56-5.59a11.9,11.9,0,0,1-1.58-7.5c.5-6,5.36-10.23,12.4-10.53,4.12-.17,8.26,0,12.64,0V30.94a40.6,40.6,0,0,1-7.78,0c-.94-.1-2.3-.27-3,.52a2.7,2.7,0,0,0-.18,2.57c1.22,3.12,7.08,1,10,4.91a12,12,0,0,1,2.2,7.45c-.1,6.89-5.16,11.55-12.79,11.68-4.62.07-9.23,0-14.07,0V47.33c2,.3,11,1.59,12.83-.42.21-.23.8-.87.64-1.5S282.89,44.33,282.5,44.22Z" transform="translate(-134.59 -7.03)"/><path class="cls-3" d="M340.73,46.6c1.84.84,3.36,1.46,5.22,2.21v9c-9.93.73-19.08-7.52-19.68-18.24-.45-8-.23-15.94,0-23.91a5,5,0,0,1,2.51-3.41c2-1.06,4.34-1.48,7.13-2.36V21.1h10.06v9.28h-9.72C336,36.58,334.8,42.35,340.73,46.6Z" transform="translate(-134.59 -7.03)"/><path class="cls-6" d="M305.5,53.12q.06-15.6,0-31.09l10.3-3.43V57.9H305.48C305.49,56.3,305.5,54.71,305.5,53.12Z" transform="translate(-134.59 -7.03)"/></svg>